<?xml version="1.0" encoding="UTF-8"?>
<svg version="1.1" xmlns="http://www.w3.org/2000/svg" width="1024" height="1024">
<path d="M0 0 C337.92 0 675.84 0 1024 0 C1024 337.92 1024 675.84 1024 1024 C686.08 1024 348.16 1024 0 1024 C0 686.08 0 348.16 0 0 Z " fill="#F76600" transform="translate(0,0)"/>
<path d="M0 0 C2.35189384 2.35189384 2.61901228 4.23754489 3.34301758 7.40771484 C7.36482476 24.64297665 16.57071946 40.80459037 27 55 C27.43248047 55.59796387 27.86496094 56.19592773 28.31054688 56.81201172 C43.33278935 77.54744586 60.45652852 97.54183229 81 113 C82.2075626 113.93551245 83.41455061 114.87176685 84.62109375 115.80859375 C94.07723031 123.08659854 103.88870384 129.67193444 114 136 C114.90105469 136.57363281 115.80210937 137.14726562 116.73046875 137.73828125 C134.66070082 148.88085428 154.79332129 157.33880415 174.86816406 163.70532227 C175.65932617 163.96498779 176.45048828 164.22465332 177.265625 164.4921875 C177.96461914 164.71245605 178.66361328 164.93272461 179.38378906 165.15966797 C181 166 181 166 182 169 C182.26269427 171.08995135 182.48722126 173.18477358 182.69140625 175.28125 C189.26630556 238.24254826 208.97607078 315.73468927 256 361 C257.38058594 361.90492188 257.38058594 361.90492188 258.7890625 362.828125 C261 365 261 365 261.48828125 368.671875 C261.4552658 370.0321116 261.39593571 371.39192338 261.3125 372.75 C261.28994141 373.44738281 261.26738281 374.14476562 261.24414062 374.86328125 C261.18547048 376.57644935 261.09579256 378.28850623 261 380 C256.00703718 377.79405738 253.41821433 374.14759822 250 370 C249.58218262 369.50902832 249.16436523 369.01805664 248.73388672 368.51220703 C214.32129267 328.05798952 176.04249194 254.71389907 179 200 C178.34 200 177.68 200 177 200 C177.06647204 238.13408332 177.06647204 238.13408332 181 276 C181.25523437 277.54953369 181.25523437 277.54953369 181.515625 279.13037109 C187.57309122 314.50705552 199.53784302 348.71452722 219 379 C213.37475005 377.20711212 207.87879458 375.19841734 202.40283203 372.99291992 C183.08380706 365.21810754 163.43432615 358.16766694 143 354 C141.79214844 353.72671875 140.58429688 353.4534375 139.33984375 353.171875 C88.50778411 342.08124381 36.23763797 350.71938847 -10.02587891 373.33959961 C-10.64474976 373.63962891 -11.26362061 373.9396582 -11.90124512 374.2487793 C-13.58628162 375.06808057 -15.26623072 375.8978216 -16.94580078 376.72827148 C-20.0099774 378.00415446 -22.73262543 378.51088238 -26 379 C-26.00238835 378.04546999 -26.00477671 377.09093998 -26.00723743 376.10748482 C-26.06607862 352.86251908 -26.14199005 329.61765661 -26.23571491 306.37280464 C-26.28064628 295.131684 -26.32006713 283.89059484 -26.34643555 272.64941406 C-26.3694371 262.84956552 -26.40285934 253.04981686 -26.44870156 243.25004756 C-26.47260457 238.0629961 -26.49135253 232.87604339 -26.49761391 227.68893814 C-26.50367793 222.80189227 -26.52372548 217.91509897 -26.55427551 213.02814674 C-26.56303462 211.23920129 -26.56678275 209.45022281 -26.56500816 207.66125679 C-26.55615527 194.61300125 -27.2466052 183.37287534 -36 173 C-41.79852186 167.53472652 -48.74711376 165.399789 -56.671875 165.62890625 C-63.64243383 166.73998526 -69.14390275 171.26131651 -73.3854332 176.70697212 C-80.04424826 186.16390419 -79.58036888 196.39942765 -79.54589844 207.48486328 C-79.55464359 209.34839232 -79.56513264 211.21191387 -79.57722473 213.07542419 C-79.60498996 218.10985566 -79.60849151 223.14404095 -79.60750484 228.17853785 C-79.6106421 233.44898595 -79.63627723 238.71932452 -79.65948486 243.98971558 C-79.69998616 253.95897592 -79.72037178 263.92817095 -79.73345876 273.89750087 C-79.75232242 287.37679372 -79.80240505 300.85596868 -79.85070229 314.33518219 C-79.92592126 335.55678199 -79.95955449 356.77823946 -80 378 C-124.55 378 -169.1 378 -215 378 C-213.3964844 373.991211 -211.78414183 370.88961281 -209.5625 367.25 C-198.75157728 348.73578871 -191.62885844 328.60457616 -186 308 C-185.71785645 306.97970703 -185.43571289 305.95941406 -185.14501953 304.90820312 C-175.61765263 269.8528826 -175.21571176 235.08762398 -175 199 C-175.66 199 -176.32 199 -177 199 C-176.97679687 199.59643311 -176.95359375 200.19286621 -176.9296875 200.80737305 C-176.78651898 207.39632062 -177.59282416 213.38772471 -179 219.8125 C-179.22002686 220.83657959 -179.44005371 221.86065918 -179.66674805 222.91577148 C-192.03632708 278.85781133 -214.21657788 335.49416622 -255 377 C-255.58394531 377.6084375 -256.16789063 378.216875 -256.76953125 378.84375 C-258 380 -258 380 -259 380 C-259.60418291 374.84430586 -259.8449617 370.14324515 -259 365 C-256.85025525 362.30952191 -254.65644119 360.81170258 -251.78515625 358.92578125 C-246.8431625 355.50866636 -243.54331471 350.79173647 -240 346 C-238.86498047 344.47052734 -238.86498047 344.47052734 -237.70703125 342.91015625 C-217.86683402 315.12732951 -204.92947531 281.39503499 -195 249 C-194.68192383 247.97374512 -194.36384766 246.94749023 -194.03613281 245.89013672 C-186.2475801 220.46950516 -181.64149453 194.43284162 -179 168 C-174.86791659 166.44161426 -170.73268875 164.90059498 -166.57421875 163.4140625 C-138.65919106 153.28351622 -112.86362765 139.60586981 -89 122 C-88.3910791 121.55092285 -87.7821582 121.1018457 -87.15478516 120.63916016 C-80.58057436 115.75728435 -74.2955175 110.63490707 -68.26953125 105.0859375 C-66.1723995 103.15845324 -64.03623645 101.29238643 -61.875 99.4375 C-55.32346601 93.70325999 -49.5694053 87.74206497 -44.4453125 80.6875 C-43.96835937 80.130625 -43.49140625 79.57375 -43 79 C-42.34 79 -41.68 79 -41 79 C-40.76925781 78.47277344 -40.53851563 77.94554687 -40.30078125 77.40234375 C-38.93426674 74.87860074 -37.31078165 72.66406407 -35.57397461 70.38427734 C-19.42837817 49.16954929 -6.05735354 26.11038186 0 0 Z " fill="#FBF8F0" transform="translate(511,305)"/>
<path d="M0 0 C7.90335031 4.46602018 13.09706224 11.34229452 15.75 20 C17.09356733 26.93377321 16.8828173 33.8816246 16.86352539 40.92163086 C16.86324301 42.33151243 16.86340225 43.74139415 16.8639679 45.15127563 C16.86425387 48.96273603 16.85838949 52.77416473 16.85139394 56.58561778 C16.84512709 60.57478215 16.84455397 64.56394731 16.84336853 68.55311584 C16.84026502 76.10003234 16.83206488 83.64693428 16.82201904 91.19384438 C16.81082742 99.78876257 16.80533978 108.38368148 16.80032361 116.97860515 C16.78988143 134.65241167 16.77230101 152.32620466 16.75 170 C16.00358183 170.08265547 15.25716366 170.16531094 14.48812675 170.25047112 C11.07224892 170.63074919 7.65698071 171.01625986 4.24169922 171.40185547 C3.06753952 171.53178391 1.89337982 171.66171234 0.68363953 171.795578 C-7.44127858 172.71795271 -15.22020814 174.0049817 -23.125 176.125 C-24.1665625 176.38925781 -25.208125 176.65351562 -26.28125 176.92578125 C-28.94153864 177.60288314 -31.59583143 178.29943262 -34.25 179 C-35.58303507 179.33452411 -36.91632259 179.66804602 -38.25 180 C-38.32017286 159.96324094 -38.37302869 139.92650693 -38.40543652 119.88965034 C-38.42088597 110.58557139 -38.44193865 101.28156892 -38.47631836 91.97753906 C-38.50627966 83.8653565 -38.52558897 75.75322936 -38.53226548 67.640993 C-38.53616636 63.34814839 -38.54529368 59.05546227 -38.56719017 54.76266861 C-38.58766182 50.71615398 -38.59381238 46.66986205 -38.58932304 42.62330055 C-38.59014349 41.1439359 -38.59604531 39.66456324 -38.60761642 38.18524361 C-38.69895573 25.8977019 -37.43284265 15.59557557 -29.25 6 C-20.76233424 -1.77203903 -10.9372284 -4.95932341 0 0 Z " fill="#F76500" transform="translate(576.25,472)"/>
<path d="M0 0 C7.62483752 4.35705001 12.06462464 10.81184768 15 19 C16.07775902 23.23294345 16.13798656 27.35983673 16.12025452 31.70051575 C16.12110894 32.46841216 16.12196337 33.23630858 16.12284368 34.02747458 C16.12448859 36.59622111 16.11899331 39.16490209 16.11352539 41.73364258 C16.11324328 43.57672118 16.11340172 45.41979989 16.1139679 47.26287842 C16.11425494 52.26449878 16.10837323 57.26609518 16.10139394 62.26770997 C16.09514492 67.49542256 16.09455537 72.72313569 16.09336853 77.95085144 C16.09025979 87.84945309 16.08205254 97.74804369 16.07201904 107.64664048 C16.06084373 118.91618986 16.05534387 130.18573976 16.05032361 141.4552933 C16.03986957 164.63686832 16.02227895 187.81843354 16 211 C15.34 210.67 14.68 210.34 14 210 C12.91185499 190.17225528 12.93560516 170.40771453 13.10053515 150.56035495 C13.13550199 146.19896236 13.16367323 141.83752528 13.19264221 137.47608948 C13.2482049 129.26037924 13.30965836 121.04472466 13.37336355 112.82907397 C13.44573508 103.45748343 13.51133356 94.08584904 13.57643402 84.71420562 C13.71022041 65.47607991 13.85228202 46.23802354 14 27 C13.01 27 12.02 27 11 27 C10.875 20.25 10.875 20.25 12 18 C11.72057545 16.32345271 11.39171753 14.65391846 11 13 C10.34 13 9.68 13 9 13 C8.814375 12.29875 8.62875 11.5975 8.4375 10.875 C6.68977555 7.3795511 4.51304151 5.69274027 1.4609375 3.33203125 C0.97882813 2.89246094 0.49671875 2.45289063 0 2 C0 1.34 0 0.68 0 0 Z " fill="#DB600B" transform="translate(469,473)"/>
<path d="M0 0 C0.66 0 1.32 0 2 0 C2.02535889 7.5988697 2.04287066 15.19772849 2.05493164 22.79663086 C2.05995981 25.38159595 2.06678319 27.96655819 2.07543945 30.55151367 C2.08757129 34.2674225 2.0932435 37.98329372 2.09765625 41.69921875 C2.10281754 42.85459641 2.10797882 44.00997406 2.11329651 45.20036316 C2.11337204 46.28110611 2.11344757 47.36184906 2.11352539 48.4753418 C2.115746 49.42354294 2.11796661 50.37174408 2.12025452 51.34867859 C2.00022729 53.9949887 1.58992258 56.42118203 1 59 C0.67 59 0.34 59 0 59 C-0.33 57.02 -0.66 55.04 -1 53 C-1.763125 53.185625 -2.52625 53.37125 -3.3125 53.5625 C-6 54 -6 54 -9 53 C-9.12375 53.886875 -9.2475 54.77375 -9.375 55.6875 C-9.94412736 58.70387502 -10.76614436 61.20326054 -12 64 C-13.57028701 60.02277707 -12.35842929 56.66110109 -11.234375 52.734375 C-11.04031067 52.02331604 -10.84624634 51.31225708 -10.64630127 50.57965088 C-10.02332658 48.30047064 -9.38781119 46.02506912 -8.75 43.75 C-4.7344074 29.34795294 -1.04425977 14.97972637 0 0 Z " fill="#F15D04" transform="translate(334,504)"/>
<path d="M0 0 C1 3 1 3 1 6 C0.34 6 -0.32 6 -1 6 C-1 58.14 -1 110.28 -1 164 C0.32 164.33 1.64 164.66 3 165 C-0.465 165.99 -0.465 165.99 -4 167 C-4.07017286 146.96324094 -4.12302869 126.92650693 -4.15543652 106.88965034 C-4.17088597 97.58557139 -4.19193865 88.28156892 -4.22631836 78.97753906 C-4.25627966 70.8653565 -4.27558897 62.75322936 -4.28226548 54.640993 C-4.28616636 50.34814839 -4.29529368 46.05546227 -4.31719017 41.76266861 C-4.33766182 37.71615398 -4.34381238 33.66986205 -4.33932304 29.62330055 C-4.34014349 28.1439359 -4.34604531 26.66456324 -4.35761642 25.18524361 C-4.42417307 16.23162211 -4.06244339 8.12488678 0 0 Z " fill="#ED681C" transform="translate(542,485)"/>
<path d="M0 0 C2.0149869 4.0299738 2.24813425 5.56347521 2.24050903 9.90985107 C2.24325836 11.11857376 2.24600769 12.32729645 2.24884033 13.57264709 C2.24176259 14.90878395 2.23449297 16.24491981 2.22705078 17.58105469 C2.22648653 18.99049369 2.2268035 20.39993329 2.22793579 21.80937195 C2.22850976 25.6334448 2.21674832 29.45739226 2.20278788 33.28143597 C2.19028789 37.27862093 2.18911059 41.27580876 2.18673706 45.27301025 C2.18052014 52.84129699 2.16410645 60.40952596 2.14403808 67.97778726 C2.12168568 76.59439477 2.11068731 85.21100504 2.10064721 93.82763433 C2.07974041 111.55178988 2.04415758 129.27588818 2 147 C-1.63 147 -5.26 147 -9 147 C-6 145 -6 145 0 145 C0 97.15 0 49.3 0 0 Z " fill="#DA6216" transform="translate(591,495)"/>
<path d="M0 0 C0.66 0 1.32 0 2 0 C2.07188618 4.00166397 2.04797575 7.99802262 2 12 C1.99419922 12.77102051 1.98839844 13.54204102 1.98242188 14.33642578 C1.95272099 16.85060532 1.88602657 19.36175021 1.8125 21.875 C1.80677979 22.68300049 1.80105957 23.49100098 1.79516602 24.32348633 C1.57524289 30.20292697 0.00154009 32.54045231 -4 37 C-5.42739072 40.61976773 -5.42739072 40.61976773 -6.3125 44.375 C-6.63863281 45.62023437 -6.96476562 46.86546875 -7.30078125 48.1484375 C-7.53152344 49.08945312 -7.76226562 50.03046875 -8 51 C-8.66 51 -9.32 51 -10 51 C-9.76925781 50.05125 -9.53851563 49.1025 -9.30078125 48.125 C-7.17665364 39.29821698 -5.1945231 30.44405022 -3.3125 21.5625 C-3.09827393 20.56927734 -2.88404785 19.57605469 -2.66333008 18.55273438 C-1.37051981 12.3818712 -0.48517404 6.28658016 0 0 Z " fill="#E9610E" transform="translate(334,504)"/>
<path d="M0 0 C0.33 0 0.66 0 1 0 C1.13051758 0.73412109 1.26103516 1.46824219 1.39550781 2.22460938 C4.77524779 21.27979719 4.77524779 21.27979719 9.3984375 40.05859375 C9.97705469 42.88780635 10.00758096 44.33710747 9 47 C7.094753 41.89665983 5.57410977 37.53657294 6 32 C3.525 32.495 3.525 32.495 1 33 C-0.15927528 29.52217417 -0.11313066 26.81196743 -0.09765625 23.14453125 C-0.0962413 22.48289474 -0.09482635 21.82125824 -0.09336853 21.13957214 C-0.08777996 19.03050172 -0.07522965 16.92153823 -0.0625 14.8125 C-0.05748352 13.38086091 -0.05292087 11.94922015 -0.04882812 10.51757812 C-0.0378143 7.01168412 -0.02055755 3.5058525 0 0 Z " fill="#E35D0B" transform="translate(689,505)"/>
<path d="M0 0 C7.30126865 4.17215351 12.71343506 10.80414074 15 19 C15.40736193 23.38728586 15.34927876 27.74948692 15.29296875 32.15234375 C15.28872391 33.40761368 15.28447906 34.66288361 15.28010559 35.95619202 C15.26620628 39.27229337 15.23931502 42.58776052 15.20599365 45.90368652 C15.1751492 49.2957617 15.16156975 52.68790274 15.14648438 56.08007812 C15.11347638 62.72022553 15.06332215 69.3600762 15 76 C14.67 76 14.34 76 14 76 C14 59.83 14 43.66 14 27 C13.01 27 12.02 27 11 27 C10.875 20.25 10.875 20.25 12 18 C11.72057545 16.32345271 11.39171753 14.65391846 11 13 C10.34 13 9.68 13 9 13 C8.814375 12.29875 8.62875 11.5975 8.4375 10.875 C6.68977555 7.3795511 4.51304151 5.69274027 1.4609375 3.33203125 C0.97882813 2.89246094 0.49671875 2.45289063 0 2 C0 1.34 0 0.68 0 0 Z " fill="#E85807" transform="translate(469,473)"/>
<path d="M0 0 C0.33 0 0.66 0 1 0 C0.96519531 0.80824219 0.93039062 1.61648438 0.89453125 2.44921875 C0.86746094 3.51785156 0.84039062 4.58648437 0.8125 5.6875 C0.77769531 6.74324219 0.74289062 7.79898437 0.70703125 8.88671875 C1.03770682 12.40069777 2.2069028 14.02099196 4 17 C4.14453125 19.75390625 4.14453125 19.75390625 3.8125 22.5625 C3.71582031 23.49191406 3.61914062 24.42132812 3.51953125 25.37890625 C3 28 3 28 1 32 C1.495 27.545 1.495 27.545 2 23 C1.34 23 0.68 23 0 23 C0 22.01 0 21.02 0 20 C-0.66 20 -1.32 20 -2 20 C-1.67 21.98 -1.34 23.96 -1 26 C-1.99 25.67 -2.98 25.34 -4 25 C-2.68 16.75 -1.36 8.5 0 0 Z " fill="#F9EDD8" transform="translate(330,492)"/>
<path d="M0 0 C3.22902895 1.72042662 4.35533616 2.56425424 6.4375 5.6875 C1.7937753 5.05996964 1.7937753 5.05996964 0.0625 3.25 C-2.52247148 0.7644505 -5.08459297 0.37167843 -8.5625 -0.3125 C-12.39056976 -0.19309232 -15.92121308 0.47373769 -19.5625 1.6875 C-18.2425 2.3475 -16.9225 3.0075 -15.5625 3.6875 C-16.5525 5.1725 -16.5525 5.1725 -17.5625 6.6875 C-19.5078125 6.98046875 -19.5078125 6.98046875 -21.6875 6.875 C-23.605625 6.7821875 -23.605625 6.7821875 -25.5625 6.6875 C-24.9025 5.6975 -24.2425 4.7075 -23.5625 3.6875 C-24.2225 3.3575 -24.8825 3.0275 -25.5625 2.6875 C-17.86218196 -3.58683322 -8.90756385 -4.28595826 0 0 Z " fill="#EC6612" transform="translate(576.5625,472.3125)"/>
<path d="M0 0 C5.72210596 1.86763181 11.37661751 3.85289032 17 6 C16.67 5.34 16.34 4.68 16 4 C20.75 4.875 20.75 4.875 23 6 C21.68085371 8.63829259 20.76142665 8.98263229 18 10 C15.66796188 10.0777346 13.33160941 10.08967728 11 10 C11 9.34 11 8.68 11 8 C10.360625 7.690625 9.72125 7.38125 9.0625 7.0625 C6.6170214 5.802708 6.22498199 5.44996398 5 3 C3.35 3.33 1.7 3.66 0 4 C0 2.68 0 1.36 0 0 Z " fill="#F16104" transform="translate(712,677)"/>
<path d="M0 0 C-0.99 0.33 -1.98 0.66 -3 1 C-0.36 1.33 2.28 1.66 5 2 C4.67 2.66 4.34 3.32 4 4 C1.6859378 4.73075648 -0.64828869 5.40138258 -3 6 C-3 6.99 -3 7.98 -3 9 C-1.35 9 0.3 9 2 9 C2 9.33 2 9.66 2 10 C-1.63 10.66 -5.26 11.32 -9 12 C-9 10.68 -9 9.36 -9 8 C-8.01 8 -7.02 8 -6 8 C-6 6.35 -6 4.7 -6 3 C-8.97 2.505 -8.97 2.505 -12 2 C-12 1.67 -12 1.34 -12 1 C-3.96428571 -1.27678571 -3.96428571 -1.27678571 0 0 Z " fill="#FBF2DF" transform="translate(561,647)"/>
<path d="M0 0 C0.33 0.66 0.66 1.32 1 2 C1.99 2.33 2.98 2.66 4 3 C3.34 6.63 2.68 10.26 2 14 C2.66 14 3.32 14 4 14 C3.67 14.99 3.34 15.98 3 17 C0.69 16.67 -1.62 16.34 -4 16 C-2.68 10.72 -1.36 5.44 0 0 Z " fill="#F8F2E2" transform="translate(317,550)"/>
<path d="M0 0 C2.17723742 2.17723742 2.41899846 3.00485979 3.0703125 5.9140625 C3.33134766 7.05488281 3.33134766 7.05488281 3.59765625 8.21875 C3.85869141 9.40984375 3.85869141 9.40984375 4.125 10.625 C4.30675781 11.42679687 4.48851562 12.22859375 4.67578125 13.0546875 C5.12370789 15.03499476 5.56270604 17.0173177 6 19 C5.34 19 4.68 19 4 19 C3.34 18.01 2.68 17.02 2 16 C1.278125 15.484375 0.55625 14.96875 -0.1875 14.4375 C-2.77257731 10.96101672 -2.01832487 8.39946109 -1.45703125 4.2421875 C-1 2 -1 2 0 0 Z " fill="#F8EAD3" transform="translate(511,305)"/>
<path d="M0 0 C2.04219706 1.69179328 2.91793306 2.63727666 3.51171875 5.26171875 C3.56972656 6.06222656 3.62773438 6.86273437 3.6875 7.6875 C3.75324219 8.49574219 3.81898438 9.30398438 3.88671875 10.13671875 C3.92410156 10.75160156 3.96148438 11.36648438 4 12 C3.34 12 2.68 12 2 12 C1.67 12.66 1.34 13.32 1 14 C0.01 13.67 -0.98 13.34 -2 13 C-2.05416188 11.39620659 -2.09286638 9.79188594 -2.125 8.1875 C-2.14820313 7.29417969 -2.17140625 6.40085937 -2.1953125 5.48046875 C-2 3 -2 3 0 0 Z " fill="#F6F7EF" transform="translate(721,594)"/>
<path d="M0 0 C0.66 0.33 1.32 0.66 2 1 C3.37342831 1.0689472 4.75002102 1.08467708 6.125 1.0625 C8.043125 1.0315625 8.043125 1.0315625 10 1 C10 1.66 10 2.32 10 3 C10.66 3.33 11.32 3.66 12 4 C9.06449875 4.69721895 6.12712524 5.38309005 3.1875 6.0625 C2.35412109 6.26166016 1.52074219 6.46082031 0.66210938 6.66601562 C-0.54155273 6.94155273 -0.54155273 6.94155273 -1.76953125 7.22265625 C-2.87711792 7.48187866 -2.87711792 7.48187866 -4.00708008 7.74633789 C-6 8 -6 8 -9 7 C-7.68 6.67 -6.36 6.34 -5 6 C-5 5.34 -5 4.68 -5 4 C-4.01 3.34 -3.02 2.68 -2 2 C-1.34 1.34 -0.68 0.68 0 0 Z " fill="#EC5D05" transform="translate(555,641)"/>
<path d="M0 0 C0.66 0.33 1.32 0.66 2 1 C2 3.31 2 5.62 2 8 C3.32 7.34 4.64 6.68 6 6 C4.44486447 9.81715086 2.00400272 12.22707442 -1 15 C-1.33 15 -1.66 15 -2 15 C-2 10.38 -2 5.76 -2 1 C-1.34 0.67 -0.68 0.34 0 0 Z " fill="#F3F9F4" transform="translate(254,670)"/>
<path d="M0 0 C0.66 0 1.32 0 2 0 C2.19335938 0.72445312 2.38671875 1.44890625 2.5859375 2.1953125 C3.92860286 7.18045615 5.28749486 12.12594691 7 17 C7.99 17 8.98 17 10 17 C10 20.96 10 24.92 10 29 C7.32066499 24.98099749 6.01305266 20.73223851 4.4375 16.1875 C4.12103516 15.29740234 3.80457031 14.40730469 3.47851562 13.49023438 C1.91305589 9.00657157 0.57196296 4.74024097 0 0 Z " fill="#D8520A" transform="translate(710,559)"/>
<path d="M0 0 C0.66 0.33 1.32 0.66 2 1 C1.49593496 6.54471545 1.49593496 6.54471545 -0.90625 8.75 C-3.65409638 11.70290955 -4.2436295 14.36828523 -5.25 18.25 C-5.58515625 19.51328125 -5.9203125 20.7765625 -6.265625 22.078125 C-6.50796875 23.04234375 -6.7503125 24.0065625 -7 25 C-7.66 25 -8.32 25 -9 25 C-8.38379145 22.20612238 -7.75750305 19.41519074 -7.125 16.625 C-6.95097656 15.8309375 -6.77695312 15.036875 -6.59765625 14.21875 C-6.42363281 13.45820312 -6.24960937 12.69765625 -6.0703125 11.9140625 C-5.91320801 11.2123291 -5.75610352 10.5105957 -5.59423828 9.78759766 C-5 8 -5 8 -3 6 C-1.96838392 4.01612292 -0.96476382 2.01723344 0 0 Z " fill="#EC6512" transform="translate(333,530)"/>
<path d="M0 0 C1.16983989 3.42967895 0.81325413 5.54339435 -0.21484375 8.984375 C-0.48876953 9.91894531 -0.76269531 10.85351562 -1.04492188 11.81640625 C-1.33947266 12.78449219 -1.63402344 13.75257813 -1.9375 14.75 C-2.22818359 15.73355469 -2.51886719 16.71710937 -2.81835938 17.73046875 C-3.53672769 20.15643388 -4.26420822 22.57927358 -5 25 C-5.33 25 -5.66 25 -6 25 C-6 22.36 -6 19.72 -6 17 C-5.67 17 -5.34 17 -5 17 C-5.04125 16.154375 -5.0825 15.30875 -5.125 14.4375 C-4.98714211 10.64640816 -4.26051226 7.57145139 -3 4 C-2.34 3.67 -1.68 3.34 -1 3 C-0.67 2.01 -0.34 1.02 0 0 Z " fill="#E45B0B" transform="translate(326,605)"/>
<path d="M0 0 C2.66735273 2.48952921 4.55746343 4.63408134 6 8 C2.25 9.125 2.25 9.125 0 8 C0 6.68 0 5.36 0 4 C-2.2236068 5.9254644 -2.2236068 5.9254644 -3 9 C-6 4.25 -6 4.25 -6 2 C-4.02 2 -2.04 2 0 2 C0 1.34 0 0.68 0 0 Z " fill="#F8F2E3" transform="translate(741,634)"/>
<path d="M0 0 C2.29648357 2.89585905 4.04347557 5.8172031 5.6875 9.125 C6.12449219 9.99382813 6.56148437 10.86265625 7.01171875 11.7578125 C8 14 8 14 8 16 C7.01 16 6.02 16 5 16 C5 15.34 5 14.68 5 14 C3.68 14.33 2.36 14.66 1 15 C1.20625 14.29875 1.4125 13.5975 1.625 12.875 C2.08135503 9.37627814 1.18883223 7.28677146 0 4 C0 2.68 0 1.36 0 0 Z " fill="#EC5804" transform="translate(720,610)"/>
<path d="M0 0 C0.66 0.66 1.32 1.32 2 2 C2.66 1.67 3.32 1.34 4 1 C4.99 1.66 5.98 2.32 7 3 C5.68 3.33 4.36 3.66 3 4 C3 6.31 3 8.62 3 11 C3.66 11 4.32 11 5 11 C4.67 10.01 4.34 9.02 4 8 C4.66 8 5.32 8 6 8 C6.05422947 9.4370809 6.09289723 10.87475462 6.125 12.3125 C6.14820313 13.11300781 6.17140625 13.91351562 6.1953125 14.73828125 C6 17 6 17 4 20 C3.32749476 17.41806023 2.66182099 14.83467929 2 12.25 C1.71382812 11.15558594 1.71382812 11.15558594 1.421875 10.0390625 C0.53484036 6.55428354 0 3.61876278 0 0 Z " fill="#E75C06" transform="translate(695,597)"/>
<path d="M0 0 C1.69469425 2.54204137 2.45762849 4.07600823 3.2890625 6.90625 C3.50820313 7.65003906 3.72734375 8.39382813 3.953125 9.16015625 C4.17484375 9.93230469 4.3965625 10.70445312 4.625 11.5 C4.85445312 12.27214844 5.08390625 13.04429687 5.3203125 13.83984375 C6.25358223 17.04518087 7 19.63701221 7 23 C6.34 23 5.68 23 5 23 C4.67 21.02 4.34 19.04 4 17 C3.34 17 2.68 17 2 17 C0.30167391 11.16200408 -0.25287193 6.06892629 0 0 Z " fill="#F7EFDF" transform="translate(704,542)"/>
<path d="M0 0 C2.72500248 4.08750372 4.07254018 8.444168 5.6875 13.0625 C6.18733398 14.44791992 6.18733398 14.44791992 6.69726562 15.86132812 C7.00728516 16.74369141 7.31730469 17.62605469 7.63671875 18.53515625 C8.06537231 19.74764038 8.06537231 19.74764038 8.50268555 20.98461914 C9 23 9 23 8 25 C7.66226563 24.28972656 7.32453125 23.57945312 6.9765625 22.84765625 C6.53054688 21.92855469 6.08453125 21.00945313 5.625 20.0625 C5.18414063 19.14597656 4.74328125 18.22945312 4.2890625 17.28515625 C3.20800838 14.87096198 3.20800838 14.87096198 1 14 C0.5859375 10.83984375 0.5859375 10.83984375 0.375 6.9375 C0.30023437 5.64714844 0.22546875 4.35679687 0.1484375 3.02734375 C0.09945312 2.02832031 0.05046875 1.02929688 0 0 Z " fill="#DE631A" transform="translate(704,568)"/>
<path d="M0 0 C0.33 0 0.66 0 1 0 C1.45755719 7.62595318 -0.25463701 14.6029854 -2 22 C-2.33 22 -2.66 22 -3 22 C-3.05383848 19.54137599 -3.09359038 17.0839245 -3.125 14.625 C-3.14175781 13.92632813 -3.15851563 13.22765625 -3.17578125 12.5078125 C-3.19344267 10.67102514 -3.10303261 8.83398037 -3 7 C-2.34 6.34 -1.68 5.68 -1 5 C-0.35232207 2.42938689 -0.35232207 2.42938689 0 0 Z " fill="#E65A0A" transform="translate(332,573)"/>
<path d="M0 0 C1.76462683 3.08809695 2 4.23312136 2 8 C1.34 8 0.68 8 0 8 C-0.33 9.32 -0.66 10.64 -1 12 C-1.66 11.67 -2.32 11.34 -3 11 C-2.690625 9.824375 -2.690625 9.824375 -2.375 8.625 C-2.25125 7.75875 -2.1275 6.8925 -2 6 C-2.66 5.34 -3.32 4.68 -4 4 C-4 3.01 -4 2.02 -4 1 C-2.68 0.67 -1.36 0.34 0 0 Z " fill="#F5F8F4" transform="translate(711,569)"/>
<path d="M0 0 C0.33 0.66 0.66 1.32 1 2 C0.28735352 3.78759766 0.28735352 3.78759766 -0.87109375 5.9140625 C-1.28037109 6.67460938 -1.68964844 7.43515625 -2.11132812 8.21875 C-2.54896484 9.0128125 -2.98660156 9.806875 -3.4375 10.625 C-3.87126953 11.42679688 -4.30503906 12.22859375 -4.75195312 13.0546875 C-5.82756988 15.04044151 -6.91047213 17.0218546 -8 19 C-8.66 19 -9.32 19 -10 19 C-9.67 19.99 -9.34 20.98 -9 22 C-9.99 22 -10.98 22 -12 22 C-10.2657267 17.02642312 -7.56672043 12.68501047 -4.875 8.1875 C-4.40707031 7.39923828 -3.93914062 6.61097656 -3.45703125 5.79882812 C-2.30784603 3.86397546 -1.15542997 1.93112772 0 0 Z " fill="#E15A0E" transform="translate(296,625)"/>
<path d="M0 0 C1 3 1 3 -0.21484375 5.91796875 C-0.78332031 6.99691406 -1.35179687 8.07585938 -1.9375 9.1875 C-2.50339844 10.27417969 -3.06929688 11.36085938 -3.65234375 12.48046875 C-4.09707031 13.31191406 -4.54179687 14.14335938 -5 15 C-5.66 14.34 -6.32 13.68 -7 13 C-6.60467975 10.54901444 -5.78698574 8.36095721 -5 6 C-4.34 6 -3.68 6 -3 6 C-3 4.68 -3 3.36 -3 2 C-2.01 2 -1.02 2 0 2 C0 1.34 0 0.68 0 0 Z " fill="#F05E07" transform="translate(300,595)"/>
<path d="M0 0 C0.33 0 0.66 0 1 0 C2.51708428 10.55808656 2.51708428 10.55808656 0 15 C-0.66 14.67 -1.32 14.34 -2 14 C-2.4140625 11.93359375 -2.4140625 11.93359375 -2.625 9.4375 C-2.69976563 8.61121094 -2.77453125 7.78492188 -2.8515625 6.93359375 C-2.90054688 6.29550781 -2.94953125 5.65742187 -3 5 C-2.34 5 -1.68 5 -1 5 C-0.67 3.35 -0.34 1.7 0 0 Z " fill="#F6F8F1" transform="translate(716,582)"/>
<path d="M0 0 C2.14336161 3.4766338 2.21277626 6.21229195 2.125 10.25 C2.10695313 11.32765625 2.08890625 12.4053125 2.0703125 13.515625 C2.04710937 14.33546875 2.02390625 15.1553125 2 16 C1.01 16 0.02 16 -1 16 C-1 17.98 -1 19.96 -1 22 C-2.4606285 19.35261084 -3 18.10551666 -3 15 C-2.34 15 -1.68 15 -1 15 C-1.01160156 14.25234375 -1.02320313 13.5046875 -1.03515625 12.734375 C-1.04417969 11.74953125 -1.05320312 10.7646875 -1.0625 9.75 C-1.07410156 8.77546875 -1.08570313 7.8009375 -1.09765625 6.796875 C-1.01195577 4.34241322 -0.70706066 2.33831086 0 0 Z " fill="#F9EFDD" transform="translate(702,533)"/>
<path d="M0 0 C1.4835001 0.42257276 2.96176424 0.86356322 4.4375 1.3125 C5.67306641 1.67794922 5.67306641 1.67794922 6.93359375 2.05078125 C7.61550781 2.36402344 8.29742188 2.67726563 9 3 C9.33 3.99 9.66 4.98 10 6 C11.65249487 6.70105843 13.32367583 7.35800351 15 8 C17.71666802 9.58975388 20.36128214 11.284506 23 13 C22.01 13.495 22.01 13.495 21 14 C18.50352434 12.6771068 16.14111905 11.30637572 13.75 9.8125 C13.09386719 9.41224609 12.43773437 9.01199219 11.76171875 8.59960938 C7.78000777 6.15754608 3.82640507 3.67967187 0 1 C0 0.67 0 0.34 0 0 Z " fill="#DD5C15" transform="translate(611,432)"/>
<path d="M0 0 C1.32 0.33 2.64 0.66 4 1 C4 2.32 4 3.64 4 5 C3.34 5 2.68 5 2 5 C1.67 6.32 1.34 7.64 1 9 C-1.5 6.6875 -1.5 6.6875 -4 4 C-4 3.01 -4 2.02 -4 1 C-2.68 1.33 -1.36 1.66 0 2 C0 1.34 0 0.68 0 0 Z " fill="#F06106" transform="translate(555,375)"/>
<path d="M0 0 C0.99 0 1.98 0 3 0 C1.42986223 5.96652354 -1.75029782 10.82909025 -5 16 C-5.66 14.68 -6.32 13.36 -7 12 C-6.02149805 10.97895449 -5.02019573 9.9793879 -4 9 C-3.67 9 -3.34 9 -3 9 C-2.67 7.35 -2.34 5.7 -2 4 C-1.34 4 -0.68 4 0 4 C0 2.68 0 1.36 0 0 Z " fill="#E75E0C" transform="translate(497,336)"/>
<path d="M0 0 C-0.11442461 1.60495567 -0.24194694 3.20898119 -0.375 4.8125 C-0.44460938 5.70582031 -0.51421875 6.59914063 -0.5859375 7.51953125 C-1 10 -1 10 -3 13 C-3.36279456 11.71073008 -3.71496698 10.41846728 -4.0625 9.125 C-4.25972656 8.40570313 -4.45695312 7.68640625 -4.66015625 6.9453125 C-5 5 -5 5 -4 3 C-4.66 3 -5.32 3 -6 3 C-6 2.34 -6 1.68 -6 1 C-1.125 0 -1.125 0 0 0 Z " fill="#EB5B04" transform="translate(510,307)"/>
<path d="M0 0 C0.99 0 1.98 0 3 0 C3 4.62 3 9.24 3 14 C0 11 0 11 -0.29296875 8.30078125 C-0.25816406 7.31464844 -0.22335937 6.32851563 -0.1875 5.3125 C-0.16042969 4.31863281 -0.13335938 3.32476563 -0.10546875 2.30078125 C-0.07066406 1.54152344 -0.03585937 0.78226563 0 0 Z " fill="#F5FBF8" transform="translate(769,671)"/>
<path d="M0 0 C0.66 0 1.32 0 2 0 C2 0.66 2 1.32 2 2 C2.99 2.33 3.98 2.66 5 3 C3.21385682 4.03046722 1.42089982 5.04913236 -0.375 6.0625 C-1.87160156 6.91521484 -1.87160156 6.91521484 -3.3984375 7.78515625 C-4.25695312 8.18605469 -5.11546875 8.58695312 -6 9 C-6.66 8.67 -7.32 8.34 -8 8 C-7.01 7.01 -6.02 6.02 -5 5 C-4.34 5.33 -3.68 5.66 -3 6 C-2.814375 5.071875 -2.814375 5.071875 -2.625 4.125 C-2 2 -2 2 0 0 Z " fill="#E95E07" transform="translate(384,446)"/>
<path d="M0 0 C0.99 0.33 1.98 0.66 3 1 C3 1.66 3 2.32 3 3 C3.66 3 4.32 3 5 3 C5.33 4.98 5.66 6.96 6 9 C6.66 9 7.32 9 8 9 C8 10.32 8 11.64 8 13 C7.34 13 6.68 13 6 13 C5.01 10.36 4.02 7.72 3 5 C2.67 7.31 2.34 9.62 2 12 C1.67 12 1.34 12 1 12 C0.67 8.04 0.34 4.08 0 0 Z " fill="#F2F9F6" transform="translate(703,556)"/>
<path d="M0 0 C2 2 2 2 2.25 5.375 C2.02515633 8.63523324 1.7239511 10.30632641 0 13 C-2.60704898 10.39295102 -2.23905333 8.52661759 -2.265625 4.97265625 C-2 3 -2 3 0 0 Z " fill="#F9F8F2" transform="translate(700,528)"/>
<path d="M0 0 C2.13657538 3.56095897 2.78253778 6.86821778 3 11 C1.625 13.9375 1.625 13.9375 0 16 C-0.33 16 -0.66 16 -1 16 C-1.02712153 14.083412 -1.04645097 12.1667127 -1.0625 10.25 C-1.07410156 9.18265625 -1.08570313 8.1153125 -1.09765625 7.015625 C-1.01510087 4.46631499 -0.74617558 2.42066409 0 0 Z " fill="#F9F1E1" transform="translate(696,606)"/>
<path d="M0 0 C0.33 0 0.66 0 1 0 C1 2.97 1 5.94 1 9 C-0.32 8.67 -1.64 8.34 -3 8 C-3 8.66 -3 9.32 -3 10 C-3.66 10 -4.32 10 -5 10 C-5 8.35 -5 6.7 -5 5 C-4.01 5 -3.02 5 -2 5 C-1.34 3.35 -0.68 1.7 0 0 Z " fill="#F8F8F2" transform="translate(300,606)"/>
<path d="M0 0 C1.56393356 3.97376829 0.36145292 6.81377903 -0.9375 10.75 C-1.31777344 11.92046875 -1.69804687 13.0909375 -2.08984375 14.296875 C-2.39019531 15.18890625 -2.69054687 16.0809375 -3 17 C-3.33 17 -3.66 17 -4 17 C-4.0805819 13.45439661 -3.98827685 10.40406471 -3 7 C-2.855625 6.13375 -2.71125 5.2675 -2.5625 4.375 C-2 2 -2 2 0 0 Z " fill="#E45A09" transform="translate(318,543)"/>
<path d="M0 0 C2 2 2 2 2.0625 5.1875 C2.041875 6.445625 2.02125 7.70375 2 9 C2.29692012 11.33824592 2.62020847 13.67377689 3 16 C0 14 0 14 -0.71484375 12.203125 C-1.04997992 9.61385373 -0.86936042 7.34126579 -0.5625 4.75 C-0.46066406 3.85796875 -0.35882813 2.9659375 -0.25390625 2.046875 C-0.17011719 1.37140625 -0.08632813 0.6959375 0 0 Z " fill="#F1FAF7" transform="translate(331,493)"/>
<path d="M0 0 C2.31 1.65 4.62 3.3 7 5 C6.01 5.33 5.02 5.66 4 6 C4.33 9.63 4.66 13.26 5 17 C4.34 17.33 3.68 17.66 3 18 C2.86722656 17.03578125 2.73445312 16.0715625 2.59765625 15.078125 C2.33275391 13.18320312 2.33275391 13.18320312 2.0625 11.25 C1.88847656 9.99703125 1.71445312 8.7440625 1.53515625 7.453125 C1.03600896 3.88592488 1.03600896 3.88592488 0 0 Z " fill="#FAEEDE" transform="translate(765,665)"/>
<path d="M0 0 C1.98 0.495 1.98 0.495 4 1 C6.21538462 8.38461538 6.21538462 8.38461538 5.125 11.5 C4.75375 11.995 4.3825 12.49 4 13 C4 11.35 4 9.7 4 8 C3.34 7.67 2.68 7.34 2 7 C1.67 6.01 1.34 5.02 1 4 C0.01 4.495 0.01 4.495 -1 5 C-0.67 3.35 -0.34 1.7 0 0 Z " fill="#FAF3E1" transform="translate(319,544)"/>
<path d="M0 0 C0.66 0 1.32 0 2 0 C1.84660156 0.51046875 1.69320312 1.0209375 1.53515625 1.546875 C0.83094597 4.7749338 0.65111796 7.95418001 0.4375 11.25 C0.35371094 12.51328125 0.26992187 13.7765625 0.18359375 15.078125 C0.12300781 16.04234375 0.06242188 17.0065625 0 18 C-0.33 18 -0.66 18 -1 18 C-1 13.71 -1 9.42 -1 5 C-1.66 5 -2.32 5 -3 5 C-1.125 1.125 -1.125 1.125 0 0 Z " fill="#EB5300" transform="translate(251,667)"/>
<path d="M0 0 C1.32 0 2.64 0 4 0 C2.44298069 4.67105792 -0.08447373 8.08705685 -3 12 C-3.33 10.68 -3.66 9.36 -4 8 C-3.34 8 -2.68 8 -2 8 C-2.33 7.01 -2.66 6.02 -3 5 C-2.01 4.67 -1.02 4.34 0 4 C0 2.68 0 1.36 0 0 Z " fill="#E85D0D" transform="translate(482,360)"/>
<path d="M0 0 C0.66 0.99 1.32 1.98 2 3 C-0.31 4.98 -2.62 6.96 -5 9 C-5.33 7.35 -5.66 5.7 -6 4 C-5.34 3.67 -4.68 3.34 -4 3 C-3.34 3.33 -2.68 3.66 -2 4 C-1.34 2.68 -0.68 1.36 0 0 Z " fill="#EE6B18" transform="translate(263,657)"/>
<path d="M0 0 C0.66 0.33 1.32 0.66 2 1 C1.67 3.97 1.34 6.94 1 10 C0.34 9.67 -0.32 9.34 -1 9 C-1.99 9.99 -2.98 10.98 -4 12 C-3.33501617 7.61110675 -1.81242323 4.0188515 0 0 Z " fill="#F8EDDA" transform="translate(305,586)"/>
<path d="M0 0 C6.64584719 0.34978143 9.83664827 1.80477672 15 6 C13.11328125 6.61328125 13.11328125 6.61328125 11 7 C9.66666667 5.66666667 8.33333333 4.33333333 7 3 C3.36456099 1.72234735 3.36456099 1.72234735 0 1 C0 0.67 0 0.34 0 0 Z " fill="#E1580C" transform="translate(568,471)"/>
<path d="M0 0 C2 2 2 2 2.1953125 4.3828125 C2.17210937 5.28773438 2.14890625 6.19265625 2.125 7.125 C2.10695313 8.03507812 2.08890625 8.94515625 2.0703125 9.8828125 C2.03550781 10.93082031 2.03550781 10.93082031 2 12 C1.67 11.34 1.34 10.68 1 10 C0.34 10 -0.32 10 -1 10 C-1.125 2.25 -1.125 2.25 0 0 Z " fill="#F2F1E2" transform="translate(511,305)"/>
<path d="M0 0 C0.66 0 1.32 0 2 0 C1.71848084 2.12636813 1.42446737 4.25108528 1.125 6.375 C0.96257812 7.55835938 0.80015625 8.74171875 0.6328125 9.9609375 C0 13 0 13 -2 15 C-2.625 11.625 -2.625 11.625 -3 8 C-2.34 7.34 -1.68 6.68 -1 6 C-0.60235737 4.01178687 -0.26224651 2.01055661 0 0 Z " fill="#DD5D13" transform="translate(327,502)"/>
<path d="M0 0 C0.66 0 1.32 0 2 0 C2 3.96 2 7.92 2 12 C1.01 12 0.02 12 -1 12 C-0.67 8.04 -0.34 4.08 0 0 Z " fill="#DF5F16" transform="translate(334,504)"/>
<path d="M0 0 C0.33 1.32 0.66 2.64 1 4 C-1.35438733 5.42944945 -2.48032433 6.08661261 -5.25 5.625 C-5.8275 5.41875 -6.405 5.2125 -7 5 C-4.63707344 2.47411298 -3.33537489 1.11179163 0 0 Z " fill="#F6F3E7" transform="translate(505,672)"/>
<path d="M0 0 C1.5625 1.8125 1.5625 1.8125 3 4 C2.67 4.99 2.34 5.98 2 7 C1.01 7 0.02 7 -1 7 C-2.68798827 8.43750191 -2.68798827 8.43750191 -4 10 C-4.33 8.68 -4.66 7.36 -5 6 C-3.35 5.34 -1.7 4.68 0 4 C0 2.68 0 1.36 0 0 Z " fill="#F8EAD6" transform="translate(725,602)"/>
<path d="M0 0 C0.33 0 0.66 0 1 0 C1 2.64 1 5.28 1 8 C1.66 8 2.32 8 3 8 C3 9.98 3 11.96 3 14 C2.01 14.495 2.01 14.495 1 15 C-0.42705634 9.69276568 -1.4002792 5.46108889 0 0 Z " fill="#FDF4E4" transform="translate(330,592)"/>
<path d="M0 0 C0 3.96 0 7.92 0 12 C-1.99097846 9.01353231 -2.94124926 6.40312738 -4 3 C-1.125 0 -1.125 0 0 0 Z " fill="#E85F0D" transform="translate(720,576)"/>
<path d="M0 0 C0.33 0 0.66 0 1 0 C1.22354607 1.89409978 1.42819951 3.7904348 1.625 5.6875 C1.74101562 6.74324219 1.85703125 7.79898437 1.9765625 8.88671875 C2.0010326 12.13716346 1.40852563 14.10230796 0 17 C-0.33 17 -0.66 17 -1 17 C-0.67 11.39 -0.34 5.78 0 0 Z " fill="#FAEFD9" transform="translate(332,473)"/>
<path d="M0 0 C0.66 0 1.32 0 2 0 C1.33501617 4.38889325 -0.18757677 7.9811485 -2 12 C-2.33 12 -2.66 12 -3 12 C-3 10.02 -3 8.04 -3 6 C-2.34 6 -1.68 6 -1 6 C-1.20625 5.38125 -1.4125 4.7625 -1.625 4.125 C-1.74875 3.42375 -1.8725 2.7225 -2 2 C-1.34 1.34 -0.68 0.68 0 0 Z " fill="#E55E10" transform="translate(311,648)"/>
<path d="M0 0 C0.66 0 1.32 0 2 0 C3.18359375 1.42578125 3.18359375 1.42578125 4.4375 3.3125 C6.10948826 5.81262038 7.81408865 7.9288012 10 10 C9.67 10.99 9.34 11.98 9 13 C7.68227638 11.40012144 6.37098863 9.79494034 5.0625 8.1875 C4.33160156 7.29417969 3.60070312 6.40085937 2.84765625 5.48046875 C1 3 1 3 0 0 Z " fill="#E05B0E" transform="translate(751,647)"/>
<path d="M0 0 C0.66 0 1.32 0 2 0 C1.42415568 2.38564077 0.77772405 4.66682784 0 7 C-2.0625 7.6875 -2.0625 7.6875 -4 8 C-4.625 6.125 -4.625 6.125 -5 4 C-4.34 3.34 -3.68 2.68 -3 2 C-2.01 2.33 -1.02 2.66 0 3 C0 2.01 0 1.02 0 0 Z " fill="#F3690A" transform="translate(301,620)"/>
<path d="M0 0 C0.66 0 1.32 0 2 0 C2.10696872 4.59965514 2.0887918 8.82241639 0 13 C-0.66 12.67 -1.32 12.34 -2 12 C-1.34 8.04 -0.68 4.08 0 0 Z " fill="#F9F3E4" transform="translate(328,505)"/>
<path d="M0 0 C1.98 0 3.96 0 6 0 C2.76478258 2.48862878 -0.59260295 4.75421558 -4 7 C-4 5.02 -4 3.04 -4 1 C-2.68 1.33 -1.36 1.66 0 2 C0 1.34 0 0.68 0 0 Z " fill="#FAE9D6" transform="translate(444,471)"/>
<path d="M0 0 C0.33 0.66 0.66 1.32 1 2 C0.67 2.99 0.34 3.98 0 5 C0.66 5 1.32 5 2 5 C2 6.32 2 7.64 2 9 C1.01 9 0.02 9 -1 9 C-1.66 6.69 -2.32 4.38 -3 2 C-2.01 1.34 -1.02 0.68 0 0 Z " fill="#F6FAF4" transform="translate(741,637)"/>
<path d="M0 0 C0.66 0.33 1.32 0.66 2 1 C2 3.64 2 6.28 2 9 C1.01 9.33 0.02 9.66 -1 10 C-0.67 6.7 -0.34 3.4 0 0 Z " fill="#EB5902" transform="translate(333,516)"/>
<path d="M0 0 C0.66 0.33 1.32 0.66 2 1 C1.67 3.64 1.34 6.28 1 9 C0.01 9 -0.98 9 -2 9 C-2.125 5.625 -2.125 5.625 -2 2 C-1.34 1.34 -0.68 0.68 0 0 Z " fill="#EE600A" transform="translate(482,491)"/>
<path d="M0 0 C1.32 0.33 2.64 0.66 4 1 C1.36 2.98 -1.28 4.96 -4 7 C-4.66 6.34 -5.32 5.68 -6 5 C-4.06745228 2.9754262 -2.36841312 1.57894208 0 0 Z " fill="#E85D0A" transform="translate(427,420)"/>
<path d="M0 0 C0.33 0.66 0.66 1.32 1 2 C2.32 2.66 3.64 3.32 5 4 C0.05 5.485 0.05 5.485 -5 7 C-5 5 -5 5 -3 3 C-2 2 -1 1 0 0 Z " fill="#FBF2E0" transform="translate(525,662)"/>
<path d="M0 0 C2.475 0.495 2.475 0.495 5 1 C5 3.64 5 6.28 5 9 C2.67527795 6.14693203 1.2491742 3.45925163 0 0 Z " fill="#E85F0C" transform="translate(728,608)"/>
<path d="M0 0 C0.99 0 1.98 0 3 0 C3 4.29 3 8.58 3 13 C2.67 13 2.34 13 2 13 C1.34 8.71 0.68 4.42 0 0 Z " fill="#F8ECD9" transform="translate(692,519)"/>
<path d="M0 0 C1.46067199 0.45082469 2.91848032 0.91093537 4.375 1.375 C5.18710937 1.63023437 5.99921875 1.88546875 6.8359375 2.1484375 C9 3 9 3 11 5 C9.02 5 7.04 5 5 5 C5 4.34 5 3.68 5 3 C3.35 3.33 1.7 3.66 0 4 C0 2.68 0 1.36 0 0 Z " fill="#E1590A" transform="translate(712,677)"/>
<path d="M0 0 C0.99 0 1.98 0 3 0 C3 0.66 3 1.32 3 2 C3.66 2 4.32 2 5 2 C5 2.99 5 3.98 5 5 C3.02 5 1.04 5 -1 5 C-0.67 3.35 -0.34 1.7 0 0 Z " fill="#F7F9F4" transform="translate(278,641)"/>
<path d="M0 0 C1.65 0 3.3 0 5 0 C5.625 2.375 5.625 2.375 6 5 C5.34 5.66 4.68 6.32 4 7 C2.02 3.535 2.02 3.535 0 0 Z " fill="#E95E07" transform="translate(538,360)"/>
<path d="M0 0 C0.33 0.66 0.66 1.32 1 2 C-0.25483449 5.42227589 -2.3651481 7.54080489 -5 10 C-5.66 9.67 -6.32 9.34 -7 9 C-4.69 6.03 -2.38 3.06 0 0 Z " fill="#E65808" transform="translate(275,659)"/>
<path d="M0 0 C0 0.99 0 1.98 0 3 C-1.98 3.99 -3.96 4.98 -6 6 C-6.33 4.68 -6.66 3.36 -7 2 C-2.25 0 -2.25 0 0 0 Z " fill="#F8F7F1" transform="translate(281,647)"/>
<path d="M0 0 C0.66 0.33 1.32 0.66 2 1 C0.02 5.455 0.02 5.455 -2 10 C-2.66 9.67 -3.32 9.34 -4 9 C-4 8.01 -4 7.02 -4 6 C-3.34 6 -2.68 6 -2 6 C-1.34 4.02 -0.68 2.04 0 0 Z " fill="#F4FAF5" transform="translate(293,624)"/>
<path d="M0 0 C2.35448165 2.55068845 2.98327924 3.71017358 3.1875 7.25 C3.125625 8.1575 3.06375 9.065 3 10 C0.9375 8.375 0.9375 8.375 -1 6 C-0.75 2.75 -0.75 2.75 0 0 Z " fill="#F9EDDA" transform="translate(310,572)"/>
<path d="M0 0 C0.8531488 2.38881665 1.12563748 3.62308755 0.3125 6.0625 C-1.18464888 8.27257692 -2.79042813 9.52695209 -5 11 C-4.40138258 8.64828869 -3.73075648 6.3140622 -3 4 C-2.34 3.67 -1.68 3.34 -1 3 C-0.67 2.01 -0.34 1.02 0 0 Z " fill="#F9EEDB" transform="translate(700,524)"/>
<path d="M0 0 C0 3.63 0 7.26 0 11 C-1.80330533 7.39338934 -2.46599103 4.91606575 -3 1 C-1 0 -1 0 0 0 Z " fill="#E45C11" transform="translate(704,526)"/>
<path d="M0 0 C0.33 0 0.66 0 1 0 C1.33 2.97 1.66 5.94 2 9 C1.01 9.33 0.02 9.66 -1 10 C-1.125 3.375 -1.125 3.375 0 0 Z " fill="#F5EEDF" transform="translate(698,515)"/>
<path d="M0 0 C0.33 0.99 0.66 1.98 1 3 C1.66 3.33 2.32 3.66 3 4 C1.68 5.32 0.36 6.64 -1 8 C-1.66 7.67 -2.32 7.34 -3 7 C-2.25 2.25 -2.25 2.25 0 0 Z " fill="#F8F1E4" transform="translate(465,388)"/>
<path d="M0 0 C0 0.66 0 1.32 0 2 C-0.99 2 -1.98 2 -3 2 C-3.33 2.99 -3.66 3.98 -4 5 C-5.65 5.33 -7.3 5.66 -9 6 C-8 3 -8 3 -5.0625 1.3125 C-2 0 -2 0 0 0 Z " fill="#E56012" transform="translate(501,678)"/>
<path d="M0 0 C2.12508244 3.18762365 2.5020163 5.26512223 3 9 C1.29115995 7.37660195 -0.37446717 5.70680947 -2 4 C-2 3.34 -2 2.68 -2 2 C-1.34 2 -0.68 2 0 2 C0 1.34 0 0.68 0 0 Z " fill="#F5F1DE" transform="translate(751,656)"/>
<path d="M0 0 C0.99 0.33 1.98 0.66 3 1 C3 2.65 3 4.3 3 6 C2.67 5.01 2.34 4.02 2 3 C1.34 3 0.68 3 0 3 C-0.33 3.99 -0.66 4.98 -1 6 C-1.66 5.67 -2.32 5.34 -3 5 C-1.125 1.125 -1.125 1.125 0 0 Z " fill="#F4F9F6" transform="translate(725,607)"/>
<path d="M0 0 C1.32 0.33 2.64 0.66 4 1 C3.67 2.32 3.34 3.64 3 5 C1.35 4.67 -0.3 4.34 -2 4 C-1.34 2.68 -0.68 1.36 0 0 Z " fill="#EF5F03" transform="translate(498,331)"/>
<path d="M0 0 C3.16115776 1.36983503 3.9927092 1.9890638 6 5 C5.01 5.33 4.02 5.66 3 6 C1.68 4.35 0.36 2.7 -1 1 C-0.67 0.67 -0.34 0.34 0 0 Z " fill="#F8EFE0" transform="translate(759,660)"/>
<path d="M0 0 C4.81938524 -0.23509196 8.46298506 0.54815522 13 2 C13 2.33 13 2.66 13 3 C8.07872966 3.16682272 4.49656104 3.24828052 0 1 C0 0.67 0 0.34 0 0 Z " fill="#E35E08" transform="translate(568,640)"/>
<path d="M0 0 C0.99 0 1.98 0 3 0 C1.375 5.75 1.375 5.75 -2 8 C-1.125 1.125 -1.125 1.125 0 0 Z " fill="#E55C0D" transform="translate(278,635)"/>
<path d="M0 0 C1 3 1 3 0.22265625 4.82421875 C-0.8515625 6.54947917 -1.92578125 8.27473958 -3 10 C-5 7 -5 7 -5 5 C-4.01 4.67 -3.02 4.34 -2 4 C-0.79117904 1.99983534 -0.79117904 1.99983534 0 0 Z " fill="#E35C0E" transform="translate(286,624)"/>
<path d="M0 0 C1 3 1 3 -0.4375 6.1875 C-1.2109375 7.5796875 -1.2109375 7.5796875 -2 9 C-2.33 9 -2.66 9 -3 9 C-3 6.69 -3 4.38 -3 2 C-2.01 2 -1.02 2 0 2 C0 1.34 0 0.68 0 0 Z " fill="#E45908" transform="translate(300,595)"/>
<path d="M0 0 C2.56616632 3.84924948 2.55097676 6.4349304 3 11 C2.01 11 1.02 11 0 11 C0 7.37 0 3.74 0 0 Z " fill="#FAE6CC" transform="translate(704,542)"/>
<path d="M0 0 C1.48199902 0.44909061 2.96055236 0.90956564 4.4375 1.375 C5.26121094 1.63023437 6.08492187 1.88546875 6.93359375 2.1484375 C9 3 9 3 10 5 C6.05140217 4.4359146 3.29120954 3.2568294 0 1 C0 0.67 0 0.34 0 0 Z " fill="#E75F0E" transform="translate(611,432)"/>
<path d="M0 0 C3.08089673 2.77280706 4.68775452 5.06326356 6 9 C5.01 9 4.02 9 3 9 C2.01 6.03 1.02 3.06 0 0 Z " fill="#DE580F" transform="translate(743,651)"/>
<path d="M0 0 C1.98 0.495 1.98 0.495 4 1 C3.34 2.98 2.68 4.96 2 7 C1.67 6.34 1.34 5.68 1 5 C0.34 5 -0.32 5 -1 5 C-0.67 4.34 -0.34 3.68 0 3 C0.66 3.33 1.32 3.66 2 4 C2 3.34 2 2.68 2 2 C1.34 2 0.68 2 0 2 C0 1.34 0 0.68 0 0 Z " fill="#FAEBD8" transform="translate(297,614)"/>
<path d="M0 0 C0.33 0 0.66 0 1 0 C1.33 2.64 1.66 5.28 2 8 C1.34 8 0.68 8 0 8 C-0.33 8.99 -0.66 9.98 -1 11 C-2.31625194 8.36749612 -1.74813658 7.19820944 -1.0625 4.375 C-0.86785156 3.55773437 -0.67320312 2.74046875 -0.47265625 1.8984375 C-0.23869141 0.95871094 -0.23869141 0.95871094 0 0 Z " fill="#F7EBD7" transform="translate(324,523)"/>
<path d="M0 0 C1.32 0 2.64 0 4 0 C5 3 5 3 4.0625 5.1875 C3.5365625 6.0846875 3.5365625 6.0846875 3 7 C2.01 4.69 1.02 2.38 0 0 Z " fill="#E6600D" transform="translate(521,332)"/>
</svg>
